<svg width="346" height="351" viewBox="0 0 346 351" fill="none" xmlns="http://www.w3.org/2000/svg">
<path d="M341.866 46.7402C341.639 51.1559 342.218 55.5575 342.253 59.9379C342.301 65.9069 341.656 71.883 341.859 77.8627C341.974 81.2063 342.5 84.5853 342.605 87.9361C343.131 104.385 343.163 120.976 343.198 137.447C343.222 147.701 342.131 158.001 343.379 168.208C343.348 169.362 343.421 170.526 343.379 171.68C343.041 181.243 342.148 190.74 341.852 200.318C341.733 204.143 341.179 208.155 341.182 211.899C341.186 215.536 341.569 219.156 341.486 222.878C341.353 228.734 340.202 234.636 340.021 240.308C339.937 242.926 340.572 245.739 339.955 248.417C336.674 248.672 333.595 247.377 330.362 247.062C323.444 246.39 316.4 247.985 309.611 247.773C304.3 247.607 298.805 247.31 293.484 246.871C276.861 245.502 259.81 244.844 243.097 245.71C235.938 246.082 228.8 246.974 221.631 247.267C218.364 247.402 215.864 246.956 212.589 247.543C208.987 248.191 208.37 247.72 204.894 247.458C199.346 247.041 194.07 247.073 188.55 247.066C168.267 247.037 147.91 246.942 127.716 246.1C121.876 245.855 115.937 245.187 110.048 245.19C91.9261 245.201 73.8601 247.377 55.8743 247.847C46.0689 248.106 36.145 246.542 26.4198 248.782L19.8469 248.608C20.1154 247.214 19.0204 245.647 17.6466 245.346C15.9624 244.978 11.9663 245.105 10.0554 245.127C9.23251 245.137 4.07527 245.664 3.86605 245.431L3.6394 219.018C1.28569 181.434 1.82268 143.71 1.67623 106.027C1.61347 90.4872 1.95519 75.0851 1.39728 59.5486L2.15395 48.7499C6.43595 48.1555 10.718 48.2935 14.9965 48.1696C52.8755 47.0692 90.6081 48.4173 128.111 47.9007C173.18 47.278 218.284 47.4302 263.248 47.3063C285.338 47.2462 307.637 47.6353 329.79 46.9135C330.631 46.8852 331.534 47.4372 332.357 46.7402H341.866Z" fill="#D97757"/>
<path d="M345.276 43.6621C345.258 44.1327 344.945 45.1092 344.899 45.6895C344.742 47.6355 344.84 50.452 343.647 52.1326C343.536 52.2919 340.934 54.344 340.659 54.4997C337.918 56.0707 335.589 55.0552 332.894 54.9491C327.708 54.7438 322.596 55.1012 317.446 54.4431C315.511 54.1954 313.171 53.4276 311.281 53.2154C308.01 52.8474 304.572 53.1127 301.277 52.7199C292.971 51.7257 286.109 50.4059 277.503 50.7881C263.953 51.3931 250.392 51.9841 236.838 52.345C224.027 52.6882 211.494 52.957 198.812 52.628C192.159 52.4546 185.471 51.5842 178.692 52.1751C172.991 52.6705 167.883 52.996 162.112 52.9252C141.197 52.6598 119.696 50.2786 98.8163 51.3684C95.5978 51.5347 92.212 52.2211 88.9447 52.3485C84.4325 52.5254 79.7356 52.0937 75.2409 52.3485C69.1421 52.6952 63.0225 53.7532 56.7773 54.0008C49.4477 54.291 40.4513 54.7722 33.2333 54.475C30.2449 54.3547 27.2949 53.6647 24.2996 53.6718C18.1451 53.686 12.2975 54.4643 6.05925 53.6859C4.35761 53.4736 2.36654 53.0278 1.43203 51.4391C0.846215 50.4449 0.378969 48.6722 0.263899 47.9752C-0.405601 43.9876 0.45917 38.2556 0.0581682 34.1017C0.138369 30.6873 -0.126642 27.3223 1.72494 24.2299C2.26891 23.3206 3.35684 23.2039 4.34365 23.4091C4.76558 23.4976 13.7027 23.0375 17.4965 23.0941C18.7518 23.1118 20.0734 23.5329 21.2694 23.5931C24.8715 23.7771 28.3445 22.4432 31.9187 22.4361C38.0662 22.4255 44.2242 23.9115 50.3508 24.092C57.3422 24.2972 64.1 23.1331 70.8752 23.0092C75.3629 22.9279 79.4322 23.2393 84.0245 23.0446C91.3332 22.7368 97.5017 23.0694 104.709 23.218C108.548 23.2959 112.29 22.7192 116.115 22.6236C127.699 22.3264 139.384 22.9809 150.912 23.0022C151.372 23.0022 154.287 23.3489 154.427 23.2109C154.022 18.3105 154.374 13.5905 156.672 9.18887C159.047 4.63514 161.24 2.57229 166.028 0.743016C170.815 -1.08626 178.187 0.696985 182.654 3.5382C187.72 6.75802 187.609 15.9221 188.693 21.3286C188.738 21.5585 193.435 22.8252 195.59 22.8323C205.696 22.8712 215.909 23.165 225.997 23.2251C237.922 23.2959 250.06 23.2676 261.916 23.3949C282.008 23.6072 302.302 22.8005 322.377 22.6483C326.781 22.6165 335.258 23.218 339.093 22.4325C339.529 22.3441 342.483 22.3193 342.919 22.8112C344.446 24.5307 344.352 34.0203 344.523 36.6173C344.641 38.4325 345.258 40.8987 345.279 42.6961C345.283 43.0146 345.29 43.3436 345.279 43.6621H345.276ZM179.892 23.0199C179.714 20.0336 179.934 17.0403 179.7 14.054C179.592 12.6634 179.285 8.80666 178.567 7.87257C177.235 6.14236 173.232 5.77799 171.213 5.73199C168.908 5.67892 167.761 5.60458 166.014 7.29233C162.475 10.7103 162.108 18.7067 161.673 23.3772L179.892 23.0163V23.0199ZM336.722 31.317C334.557 31.639 332.231 30.942 329.996 30.9526C320.975 30.9951 311.843 31.8266 302.78 31.7098C282.168 31.4374 261.602 31.4409 241.005 30.7474C224.107 30.1778 206.048 28.1574 189.237 29.0809C187.044 29.2012 185.733 29.4736 183.606 29.3887C175.788 29.0844 167.796 30.6767 159.856 30.5528C140.304 30.245 120.439 30.015 100.908 29.2012C92.1945 28.8367 83.9688 29.6258 75.4326 29.3993C66.1399 29.1517 56.8192 29.3321 47.481 29.0066C40.6849 28.7695 34.7292 27.6196 27.8075 28.7059C22.7096 29.5055 18.438 29.5869 13.2843 29.785C10.9933 29.8735 8.78956 29.5727 6.52999 29.3923C6.9833 34.9615 6.81941 40.5484 7.11231 46.1636C7.27969 46.337 11.3002 46.2202 11.9139 46.1566C16.7015 45.6683 21.0358 44.5713 26.0082 45.0207C30.3704 45.417 33.9097 45.9725 38.3591 46.1671C50.8495 46.7155 63.3259 46.8359 75.8023 46.5634C80.5341 46.4608 84.8754 46.7722 89.5235 46.3865C98.9767 45.6046 106.962 45.923 116.276 45.9053C130.06 45.877 144.674 44.812 158.513 44.2529C163.005 44.0725 168.8 43.0853 173.11 43.7009C174.832 43.9451 177.224 44.7696 178.853 44.8333C180.202 44.8863 181.283 43.7187 182.469 43.6585C189.066 43.3259 196.092 43.8142 202.662 43.7222C219.849 43.4851 237.141 44.8792 254.283 45.6718C268.126 46.3087 280.558 45.2366 294.226 45.0102C297.068 44.9642 299.973 45.5621 302.783 45.5444C306.159 45.5268 309.88 44.8191 313.276 44.9005C319.504 45.0455 325.456 46.2344 331.882 45.9867C333.563 45.923 335.425 45.1446 337.193 45.7815L336.722 31.3206V31.317Z" fill="#141413"/>
<path d="M343.124 246.715C342.43 247.052 341.604 248.895 341.091 249.182C339.547 250.045 333.41 248.934 331.307 248.881C327.939 248.796 324.427 249.291 321.045 249.298C305.674 249.32 290.147 248.803 274.661 248.428C259.775 248.067 244.917 247.285 229.979 247.926C220.554 248.329 211.683 249.673 202.052 249.854C195.479 249.978 188.069 250.643 181.723 250.42C180.115 250.363 178.462 250.119 176.855 250.056L175.906 267.223C176.956 266.947 177.96 266.841 179.052 266.827C186.988 266.738 199.196 273.956 204.032 280.247C206.334 283.241 208.307 287.115 209.364 290.752C209.625 290.565 211.202 279.816 211.568 275C212.147 267.305 210.944 259.029 221.098 258.434C225.289 258.19 228.305 259.407 230.648 262.977C230.969 262.344 231.489 261.438 231.973 260.943C233.877 259 237.511 257.327 240.248 257.578C242.985 257.829 246.183 260.907 247.191 263.359C247.578 263.133 252.383 259.432 255.831 259.701C261.086 260.108 262.446 264.155 263.67 268.723C265.713 276.348 265.344 283.917 265.55 291.747C265.992 308.656 266.379 324.101 261.4 340.557C260.874 342.301 259.632 346.501 258.785 347.895C258.719 348.001 257.24 349.728 257.129 349.792C256.864 349.94 255.26 350.135 254.865 350.146C254.231 350.163 252.63 350.071 252.236 349.572C252.055 349.346 251.166 347.411 251.082 347.081C250.831 346.101 250.866 344.778 251.079 343.791C252.25 338.275 255.197 331.789 256.637 326.093C257.292 323.506 257.742 320.329 258.021 317.661C259.388 304.7 258.806 291.616 257.906 278.669C257.707 275.821 257.184 268.546 255.594 266.314C253.854 263.876 250.821 267.864 250.318 269.721C247.037 281.85 247.124 300.15 247.372 312.849C247.414 315 248.435 319.586 247.086 321.228C247.034 321.291 242.1 322.841 241.301 322.289C240.408 321.673 240.021 319.646 239.973 318.623C239.83 315.701 240.426 312.155 240.52 309.155C240.642 305.252 240.492 301.282 240.733 297.411C241.13 291.046 242.787 284.723 242.93 278.351C242.985 275.846 242.999 268.769 242.358 266.632C242.006 265.461 239.871 263.37 238.735 263.734C235.401 264.81 234.697 269.357 234.132 272.385C233.1 277.894 233.438 283.365 233.128 288.934C232.605 298.314 232.287 309.884 230.648 319.002C230.418 320.283 228.992 321.174 228.058 321.96C226.558 321.68 224.424 322.236 223.483 320.697C221.687 317.767 223.605 311.281 224.002 307.821C225.003 299.128 225.338 290.296 226.098 281.592C226.345 278.772 227.092 275.616 227.242 272.916C227.385 270.333 225.69 265.082 222.768 264.711C221.132 264.506 217.98 264.7 217.374 266.561C216.041 270.648 216.662 276.462 216.606 280.824C216.484 290.441 216.962 300.398 215.023 309.894C214.866 310.662 214.218 311.695 214.158 312.311C214.005 313.857 214.295 315.694 213.649 317.367C213.241 318.422 211.069 320.063 210.054 320.308C209.364 320.474 205.375 319.235 205.141 319.105C204.071 318.5 204.256 317.3 204.039 316.355C203.725 314.982 203.52 313.143 203.464 311.487C203.175 303.03 204.35 289.871 197.623 283.63C194.74 280.955 184.892 275.106 181.14 274.752C179.937 274.639 178.082 275.036 177.346 276.097C177.061 276.507 181.841 279.289 183.362 279.819C190.297 282.239 193.045 288.566 194.869 295.338C196.417 301.084 194.673 305.868 192.595 311.243C189.478 319.303 181.716 327.373 173.113 328.704C165.316 329.907 151.707 325.056 146.832 318.238C137.874 305.709 143.816 288.633 156.836 282.094C157.579 281.723 161.488 280.523 161.442 279.695C161.411 279.119 159.807 277.24 159.239 277.109C157.059 276.596 153.307 276.787 151.208 277.541C144.9 279.812 140.381 283.91 136.793 289.532C132.054 296.959 130.76 301.976 130.788 310.839C130.809 317.59 131.28 324.433 131.071 331.159C130.959 334.726 130.677 344.166 128.857 346.866C128.707 347.089 126.991 348.507 126.792 348.522C122.733 348.826 122.747 346.144 122.876 342.921C122.985 340.231 123.183 337.482 123.267 334.825C123.602 324.37 124.414 314.009 125.952 303.603C127.521 292.985 133.812 279.271 143.083 273.514C149.845 269.318 163.196 266.321 167.827 274.947C168.116 275.485 168.103 276.267 168.507 276.667L169.079 249.663C167.719 249.709 166.342 249.603 164.982 249.663C158.89 249.921 153.332 249.118 147.324 249.097C142.02 249.079 136.744 250.038 131.531 250.232C124.16 250.505 115.864 250.215 108.503 250.165C90.2453 250.038 71.8794 249.008 53.5902 249.659C41.9856 250.073 29.422 251.453 17.8627 250.434C14.4036 250.13 13.4447 249.949 9.88097 250.059C7.4087 250.133 4.93295 250.101 2.46417 250.239C-2.4699 246.829 0.81483 243.595 5.33744 242.731C7.83063 242.257 13.6155 241.5 15.9344 241.971C26.4511 244.104 37.0236 244.002 47.7007 243.92C60.7106 243.821 73.8914 243.796 86.8629 243.113C95.6152 242.653 104.375 243.372 113.092 243.453C116.38 243.485 119.675 242.579 122.786 242.515C123.968 242.491 125.774 242.922 126.977 242.922C131.831 242.919 136.716 241.847 141.636 241.833C145.524 241.822 149.294 242.993 153.032 242.551C155.511 242.257 157.844 242.508 160.232 242.335C162.063 242.201 164.079 241.5 165.93 241.366C172.995 240.853 180.586 242.169 187.605 241.564C190.859 241.284 193.024 240.852 196.357 240.98C202.024 241.199 207.976 242.158 213.649 242.101C219.323 242.045 225.195 240.948 230.805 241.029C235.265 241.093 239.223 241.68 243.864 241.564C250.284 241.404 256.787 241.38 263.276 241.366C283.399 241.327 303.585 240.955 323.723 241.366C326.753 241.426 329.94 241.879 333.03 241.772C334.787 241.712 340.785 240.456 341.852 242.066C342.127 243.075 343.633 245.863 343.138 246.715H343.124ZM167.416 298.208C169.877 300.497 173.082 300.32 175.885 298.738C179.969 296.431 179.575 289.206 175.892 286.814C174.815 286.114 174.682 286.56 173.898 286.404C172.043 286.04 170.571 285.325 168.803 286.347C166.519 287.667 165.39 291.789 165.63 294.33C165.756 295.667 166.443 297.305 167.416 298.208ZM185.904 312.474C190.653 306.604 188.118 297.461 185.44 291.202C185.154 290.537 184.791 289.794 184.362 289.21C184.606 292.978 184.108 296.672 182.256 299.994C178.208 307.262 170.746 308.798 163.674 304.994C158.597 302.262 157.523 295.894 157.844 290.558C155.41 292.27 153.112 294.397 151.696 297.146C149.043 302.305 150.305 309.583 153.917 314.024C156.63 317.357 165.261 321.164 169.525 321.04C175.125 320.877 182.392 316.815 185.904 312.474Z" fill="#141413"/>
<path d="M189.464 102.019C190.932 103.345 189.99 106.816 189.342 108.405C184.498 120.255 177.992 131.234 172.179 142.609C170.027 146.823 167.851 151.055 165.961 155.379C163.329 161.408 160.693 167.505 158.126 173.612C157.118 176.011 154.629 183.947 153.049 185.214C151.428 186.516 149.649 186.303 147.895 185.277C145.615 183.947 147.16 179.63 147.986 177.766C150.127 172.932 152.585 167.158 154.932 162.47C158.517 155.308 163.925 149.428 167.025 141.612C170.613 132.561 173.556 124.313 177.911 115.485C179.167 112.941 184.087 102.574 186.172 101.523C187.044 101.084 188.777 101.389 189.467 102.015L189.464 102.019Z" fill="#141413"/>
<path d="M204.465 113.578C207.885 115.439 211.432 119.646 214.298 122.381C216.477 124.462 218.625 126.486 220.993 128.591C223.887 131.163 226.781 133.626 229.515 136.414C229.916 136.821 231.639 138.417 232.005 138.799C233.169 140.019 233.285 142.624 232.528 144.103C230.537 147.998 226.705 151.381 223.709 154.417C219.344 158.843 214.249 162.151 210.058 166.422C209.256 167.239 207.422 169.812 206.721 170.31C206.508 170.463 204.59 171.266 204.423 171.273C203.865 171.294 201.225 169.716 201.051 169.302C200.838 168.8 200.856 166.776 200.971 166.202C200.992 166.1 201.968 164.557 202.066 164.433C204.663 161.047 209.5 157.208 212.701 154.031C215.902 150.854 219.577 147.4 222.785 143.848C222.98 143.632 219.989 137.705 218.5 136.028C214.971 132.058 209.964 128.945 206.159 125.244C204.248 123.386 202.711 121.189 201.027 119.087C200.165 118.015 198.676 117.456 198.763 115.782C198.837 114.346 199.503 113.26 200.821 112.718C201.849 112.297 203.52 113.054 204.472 113.574L204.465 113.578Z" fill="#141413"/>
<path d="M138.003 113.567C139.143 114.215 139.314 115.804 138.899 116.954C138.167 118.974 132.005 123.92 130.182 125.64C127.232 128.421 124.32 131.248 121.304 133.912C118.828 136.103 116.467 138.296 114.333 140.812C114.037 141.162 112.639 143.154 112.611 143.455L118.117 146.923C123.413 152.495 129.275 156.946 135.164 161.843C136.305 162.792 136.134 161.967 137.103 163.627C137.229 163.839 136.169 168.665 133.986 168.587C131.684 168.506 125.701 163.747 123.64 162.112C118.988 158.422 115.013 154.197 110.424 150.482C108.981 149.314 105.532 147.478 104.957 145.819C104.005 143.077 103.719 141.134 105.86 138.923C107.258 137.479 109.347 136.428 110.808 135.073C114.912 131.259 118.333 124.996 122.772 121.401C123.738 120.619 125.275 120.142 126.081 119.547C128.037 118.111 133.173 113.168 135.328 112.991C135.698 112.959 137.686 113.387 137.999 113.567H138.003Z" fill="#141413"/>
</svg>
