<svg width="487" height="479" viewBox="0 0 487 479" fill="none" xmlns="http://www.w3.org/2000/svg">
<path d="M240.893 9.41171C243.968 10.086 247.659 9.93276 250.77 9.41171H259.004C260.079 10.6009 261.318 9.67517 262.448 9.73647C266.254 9.9265 270.15 10.6009 273.974 10.7664C278.227 10.9503 283.302 10.2822 287.403 10.8401C292.635 11.5573 302.349 15.4376 307.943 17.0682C320.153 20.6236 332.471 24.0316 344.607 27.9855C363.637 34.1829 387.826 57.5323 404.771 69.8781C406.112 70.8528 408.891 71.9682 409.719 72.7099C410.48 73.3965 411.616 75.8057 412.462 76.7804C414.28 78.8646 416.479 80.6792 418.261 82.7634C435.829 103.274 449.458 126.721 462.893 150.291C469.78 172.954 474.571 196.144 479.144 219.389C479.827 222.871 481.035 227.578 481.434 230.919C481.699 233.151 480.956 236.154 481.929 238.459V247.152C480.068 253.092 481.681 259.436 481.264 265.364C479.899 284.851 473.858 298.282 468.596 316.365C467.031 321.735 466.282 328.245 464.313 333.413C461.498 340.775 453.119 351.435 448.727 358.38C440.196 371.878 431.932 385.855 422.798 398.924C416.835 407.451 410.843 410.7 403.068 417.008C391.843 426.117 380.758 435.434 369.219 444.157C351.198 449.233 333.969 456.565 316.298 462.646C305.926 466.213 296.598 468.383 286.068 471.068C278.227 473.066 270.482 475.574 262.629 477.529C261.976 477.498 261.306 477.572 260.653 477.529C252.262 476.959 242.107 475.457 233.492 474.513C217.592 472.766 203.395 469.517 187.96 465.913C184.655 465.141 180.626 465.024 177.491 464.172C174.071 463.246 165.016 458.385 161.313 456.528C137.251 444.458 112.204 429.249 89.9724 413.943C82.0706 408.505 79.3279 404.012 73.9392 396.356C60.2136 376.844 48.5965 355.763 35.608 335.736C28.3888 324.61 28.0143 316.942 25.9059 304.124C21.1092 274.945 19.6594 245.368 16.953 215.882C25.5798 176.724 43.5764 140.998 59.5492 104.635C80.8081 85.3501 99.6262 64.2018 122.178 46.1857C124.951 43.9667 125.011 43.4209 128.648 41.7229C148.705 32.3931 171.48 25.6992 192.63 19.4221C204.507 15.8973 219 10.233 231.348 9.4177H240.899L240.893 9.41171Z" fill="#D97757"/>
<path d="M253.168 2.45994C254.213 3.93114 254.389 6.94092 254.534 8.84735C255.941 27.1944 254.244 45.6886 253.652 63.9314C253.392 71.9188 253.622 80.0412 253.374 87.9857C253.332 89.3956 252.377 94.9615 252.987 95.7033C260.798 98.1308 271.286 103.016 272.452 112.205L350.775 110.158C351.543 106.302 354.587 104.095 356.696 101.079C354.69 95.4029 352.262 89.8001 350.389 84.0808C349.652 81.825 349.398 79.3547 348.679 77.1295C345.495 67.2295 341.973 57.5807 338.609 47.6501C335.66 38.9578 331.939 35.6233 327.855 28.1018C326.774 26.1095 326.816 23.8044 327.626 21.6772C328.604 19.0965 331.118 18.9681 333.51 19.342C335.902 19.7159 336.657 21.5549 338.294 22.8422C350.685 32.5521 352.231 46.3446 358.55 60.0942C362.562 72.0722 367.304 83.762 371.05 95.8565C372.741 96.6779 374.535 96.5493 376.354 97.1562C381.688 98.9339 390.472 101.778 394.09 106.222C394.894 107.209 395.565 108.423 396.138 109.557C404.789 109.576 413.446 110.47 422.115 110.458C428.072 110.452 438.197 108.803 443.507 109.876C444.262 110.029 446.751 112.843 447.138 113.572C447.579 114.406 447.295 114.792 447.543 115.442C447.736 115.957 448.449 116.331 448.576 116.797C448.672 117.152 447.072 121.707 446.769 122.197C445.712 123.908 441.139 125.348 439.224 125.189C438.439 125.121 437.472 124.079 436.584 123.92C428.809 122.503 413.972 123.386 405.653 123.533C402.766 123.582 399.443 124.177 396.604 123.564C394.646 130.939 389.366 136.731 383.259 140.949L383.108 142.058C384.606 148.973 384.902 156.127 386.14 163.078C388.134 174.278 391.064 185.391 392.888 196.658C393.885 202.782 394.405 208.979 395.281 215.116C396.096 214.484 395.74 215.392 396.416 215.49C399.147 215.876 401.346 215.931 404.216 216.899C411.918 219.499 418.618 225.163 417.995 234.162C418.37 234.554 427.335 233.88 428.712 233.88C436.33 233.88 444.558 234.401 452.4 233.812C457.607 233.42 463.334 232.065 468.548 231.489C471.218 231.194 478.117 230.195 480.395 230.459C483.693 230.845 483.27 234.069 484.357 235.498C484.605 235.823 485.282 235.743 485.402 235.927C485.813 236.528 486.986 238.495 486.992 239.145C486.998 239.795 486.23 240.23 486.158 241.039C486.097 241.732 486.581 242.474 486.46 242.976C486.381 243.308 482.322 247.365 481.796 247.605C476.788 249.903 470.481 248.224 465.6 246.176C449.397 245.986 433.225 245.766 417.017 245.858C416.401 252.447 413.887 257.345 409.266 261.888C408.577 262.562 407.405 262.881 406.831 263.426C404.463 265.7 402.022 269.703 398.482 270.69C397.637 270.923 396.024 270.617 395.438 271.248C395.166 271.542 393.879 277.973 393.662 279.113C392.387 285.844 391.348 290.073 389.505 296.632C386.732 306.514 384.28 316.714 381.005 326.436C378.994 332.407 376.318 338.316 374.372 344.434C373.303 347.793 372.656 351.416 371.563 354.782C374.04 354.494 376.559 355.051 378.957 355.131C396.827 355.756 415.053 354.874 432.972 354.806C436.185 354.794 441.435 353.292 444.008 355.615C445.724 357.172 446.498 360.231 447.905 362.039L447.053 365.062C446.938 365.466 447.283 365.981 447.204 366.263C447.126 366.545 444.727 369.61 444.462 369.782C444.292 369.892 441.151 371.504 440.958 371.559C437.593 372.528 423.281 371.755 418.817 371.48C405.708 370.677 393.347 368.139 379.954 367.501C377.701 367.391 369.443 366.098 367.932 366.968C367.691 367.109 366.072 371.443 365.806 372.16C364.882 374.636 364.356 377.794 363.504 380.184C356.466 400.052 346.426 418.3 335.407 436.218C334.833 437.684 336.627 437.61 337.473 438.315C342.07 442.159 344.378 444.991 344.124 451.409C343.508 466.905 329.704 482.096 313.604 477.241C298.833 472.784 291.059 463.896 294.919 447.246C296.768 439.277 306.373 433.209 313.798 431.652C315.35 431.327 318.969 431.676 319.881 430.475C320.473 429.696 321.017 427.226 321.584 426.19C329.559 411.576 337.865 398.967 344.341 383.121C345.713 379.761 345.701 379.056 346.631 375.752C347.205 373.705 348.256 371.271 348.848 369.15C344.444 370.131 340.01 370.677 335.534 371.167C313.967 373.539 292.116 368.525 270.603 366.514C266.628 366.14 262.599 366.668 258.624 366.134C258.72 367.832 258.321 369.659 258.267 371.32C258.122 375.752 258.678 380.662 258.605 385.015C258.37 400.174 257.844 412.961 259.518 428.207C260.182 434.257 259.125 439.608 259.258 445.487C259.342 449.306 260.019 453.64 260.237 457.551C260.436 461.162 260.605 461.817 261.161 465.293C261.451 467.108 261.088 472.098 259.796 473.409C259.318 473.9 258.478 473.887 257.989 474.249C257.566 474.562 257.482 475.218 256.962 475.549C256.703 475.714 252.764 477.437 252.522 477.431C250.692 477.388 246.191 473.311 245.641 471.423C243.841 465.226 244.493 444.108 245.127 436.813C246.819 417.326 247.532 398.421 245.176 378.946C244.644 374.545 244.022 370.198 243.66 365.785C236.44 365.049 229.143 365.387 221.887 365.485C205.945 365.705 189.857 365.975 173.83 366.496C170.725 366.6 167.378 365.993 164.327 366.195C161.596 366.373 158.793 367.532 155.93 367.183C154.504 372.933 151.115 378.492 146.004 381.508V381.992C146.325 382.422 146.88 382.722 147.122 383.2C152.094 392.996 157.628 402.51 163.071 412.128C166.405 418.019 168.834 422.818 172.537 427.912C175.962 432.62 179.853 436.801 183.544 441.227C184.432 442.294 186.111 446.523 187.972 446.002C188.286 445.916 188.159 444.151 189.144 444.8C189.374 444.948 192.086 448.73 192.376 449.208C193.433 450.992 194.013 453.058 195.01 454.891C195.518 455.829 197.378 457.864 197.547 458.36C197.656 458.691 196.611 461.928 196.381 462.185C196.224 462.363 192.708 464.723 192.406 464.833C189.706 465.826 188.335 464.699 186.341 463.019C173.836 452.475 159.736 434.619 149.756 421.286C144.512 414.279 139.685 407.506 135.396 399.769C133.62 396.563 132.261 393.008 130.43 389.955C125.79 390.115 121.701 390.9 117.164 389.533C113.37 388.386 105.921 383.77 103.722 380.454C101.735 377.463 101.294 373.067 100.001 369.788C92.8602 368.697 85.4295 370.609 78.3614 370.762C71.704 370.91 63.6209 369.739 56.8548 369.285C52.8555 369.015 37.8615 370.266 39.4564 362.781C41.1177 355.008 52.7469 356.804 58.5766 356.449C68.3331 355.848 78.4943 355.033 88.2327 353.789L100.532 354.407C101.064 350.386 103.263 346.862 105.673 343.748C106.531 342.644 110.198 339.346 110.597 338.378C111.159 336.998 108.084 326.706 107.613 324.377C105.51 314.054 103.946 303.584 102.502 293.138C100.659 279.775 100.134 266.46 98.5751 253.017C98.0978 248.873 99.9464 247.88 94.7812 247.703C81.394 247.231 67.9646 248.187 54.5593 247.635C51.7864 247.519 48.7899 248.353 46.2164 246.845C45.2136 251.044 42.2594 255.586 39.1241 258.534C33.2279 264.076 24.8971 264.885 17.2188 263.071C4.60489 260.085 -1.39401 248.212 0.273347 235.148C2.40588 218.414 14.9594 208.318 31.6511 213.344C37.4204 215.079 42.489 217.298 45.3526 222.833C46.6514 225.341 48.5482 230.263 48.7174 232.715C48.7536 233.199 48.4819 233.665 48.5181 234.155H97.5844C97.3427 228.755 97.6206 223.354 97.5965 217.942C97.5784 214.889 97.083 211.413 97.1132 208.262C97.3306 186.09 104.151 167.191 110.518 146.539C112.82 139.085 114.524 131.392 116.68 123.895C115.605 123.539 114.403 124.392 113.563 124.392C94.9625 124.484 73.0934 124.202 54.6015 122.203C53.6832 122.105 49.3275 121.186 48.8382 120.72C48.6267 120.524 47.9744 117.863 48.0227 117.514C48.3972 114.749 52.8617 112.536 55.3144 112.217C69.0339 110.434 84.1368 111.617 98.0254 111.739C102.653 111.782 104.296 112.07 108.597 112.549C112.476 112.978 116.384 112.432 120.251 112.818C124.643 103.139 128.437 92.9572 133.402 83.566C139.788 71.496 145.908 58.9786 153.079 47.3867C153.35 46.9454 153.997 46.8412 154.226 46.4672C155.58 44.242 156.069 41.3548 158.159 39.5342C153.217 33.2264 149.502 27.8932 151.9 19.4767C154.589 10.0365 163.777 0.486128 174.102 1.28303C187.948 2.34965 202.513 10.0611 201.299 26.1646C200.816 32.5337 199.076 40.0061 194.726 44.7875C187.296 52.9526 180.264 50.4027 170.55 49.3667C169.927 49.2993 169.39 48.962 168.81 48.772C168.562 48.772 166.067 52.1129 165.753 52.64C158.89 64.2564 153.314 77.7731 146.783 89.7879C143.177 96.4205 139.957 103.985 137.208 111.145C137.045 111.568 136.284 113.719 136.447 113.873C139.105 114.277 141.558 113.486 144.198 113.529C167.323 113.916 188.878 113.094 212.004 111.856C215.804 111.654 219.67 111.856 223.464 111.813C224.382 111.494 225.959 106.651 227.004 105.352C227.892 104.236 228.955 103.985 229.614 103.323C232.961 99.9392 235.474 97.1623 240.47 96.1325C241.364 85.4356 239.618 74.2974 240.264 63.6067C240.446 60.5539 240.995 57.4399 241.201 54.2707C242.119 40.1778 242.832 25.9255 243.672 11.7468C243.859 8.57762 242.27 2.16556 245.986 0.320426C247.919 -0.641983 251.93 0.706617 253.174 2.46593L253.168 2.45994ZM221.736 119.561L132.538 123.276C129.856 131.319 127.047 139.337 124.093 147.281C119.181 160.497 114.373 172.2 111.642 186.464C108.603 202.353 109.044 218.751 108.924 234.854C109.057 235.032 112.723 235.847 113.237 235.866C119.562 236.043 126.238 235.498 132.665 235.529C160.086 235.676 187.598 238.642 215.308 237.502C219.247 237.343 223.265 237 227.155 236.852C231.644 236.687 236.193 236.491 240.681 236.681L241.678 236.172L240.851 144.829C240.796 144.615 237.347 143.511 236.755 143.241C234.06 142.009 231.988 140.881 229.849 138.889C227.499 136.701 222.552 128.971 221.803 125.973C221.47 124.631 221.627 121.124 221.73 119.561H221.736ZM348.516 123.564C340.481 123.184 332.549 124.079 324.647 124.263C309.937 124.594 294.979 124.269 280.197 123.809C277.363 123.724 274.524 123.043 271.666 123.282C271.105 123.497 269.081 129.296 268.477 130.313C266.544 133.568 261.233 139.937 258.158 142.15C256.455 143.376 253.712 144.768 251.694 145.289C251.737 145.792 252.027 146.227 251.996 146.748C250.994 165.849 252.564 184.821 253.35 203.91C253.507 207.766 253.591 234.952 254.975 236.031C256.455 236.191 257.965 235.528 259.421 235.486C267.407 235.271 275.798 236.62 283.827 236.957C296.187 237.478 308.813 237.417 321.355 237.484C332.869 237.545 344.626 236.699 356.249 236.497C356.938 236.485 357.68 236.859 358.538 236.84C360.574 236.803 362.767 236.393 364.646 236.822C365.238 229.497 373.176 222.067 379.175 218.653C380.806 217.721 382.63 217.126 384.346 216.385C384.787 215.6 384.068 200.483 383.887 198.344C382.776 185.091 379.115 170.281 376.022 157.285C375.568 155.385 372.572 143.756 371.66 143.333C368.222 142.684 364.241 142.273 361.124 140.655C355.518 137.743 348.885 130.056 348.51 123.552L348.516 123.564ZM241.497 250.866C237.631 250.412 233.71 250.02 229.849 249.487C196.72 244.865 161.476 246.391 128.026 247.862C121.852 248.132 115.684 248.904 109.443 248.53C109.679 255.684 111.262 262.678 112.071 269.752C112.276 271.542 111.884 273.62 112.083 275.423C113.442 287.646 116.59 299.624 119.671 311.492C121.586 318.878 124.274 326.099 125.247 333.731C127.023 333.952 129.971 333.915 131.584 334.485C135.366 335.821 143.98 341.222 146.983 343.919C150.861 347.401 154.057 351.625 156.105 356.455C158.328 356.719 160.823 355.86 162.95 355.787C186.051 354.984 209.539 355.254 232.749 355.131C234.175 355.125 242.633 355.241 243.134 354.953C244.409 354.224 243.195 346.549 243.116 344.937C241.799 316.267 241.165 287.695 241.134 259.068C241.134 256.297 241.34 253.606 241.479 250.866H241.497ZM367.727 255.776C367.322 254.991 366.525 250.878 365.443 250.596C363.746 250.639 361.692 251.54 360.145 251.742C335.515 254.979 312.118 255.181 287.464 254.844L254.993 252.545C255.186 257.866 256.117 263.132 256.648 268.434C257.693 278.904 258.612 289.227 259.101 299.814C259.82 315.323 259.27 331.248 258.612 346.586C258.479 349.62 259.403 353.034 258.944 356.118C259.306 356.492 267.504 356.357 268.658 356.093C285.652 359.189 303.28 356.866 320.358 357.454C327.251 357.693 334.229 358.27 341.061 357.411C342.572 357.221 353.24 355.315 353.76 354.929C354.08 354.69 354.503 353.856 354.611 353.457C359.021 337.329 365.993 322.219 371.031 306.281C371.756 303.988 372.777 301.487 373.387 299.336C373.623 298.502 373.4 297.644 373.611 296.89C373.847 296.05 375.061 295.412 375.363 294.665C377.809 288.522 379.501 277.415 380.48 270.77C380.576 270.12 381.314 269.311 381.32 268.587C381.338 267.19 379.308 267.478 378.897 267.331C375.532 266.099 369.382 259 367.727 255.776Z" fill="#141413"/>
</svg>
